<svg width="20" height="20" viewBox="0 0 20 20" fill="none" xmlns="http://www.w3.org/2000/svg">
<mask id="mask0_8414_1250" style="mask-type:alpha" maskUnits="userSpaceOnUse" x="0" y="0" width="20" height="20">
<rect width="20" height="20" fill="#D9D9D9"/>
</mask>
<g mask="url(#mask0_8414_1250)">
<path d="M3.33329 17.5C2.87496 17.5 2.4826 17.3368 2.15621 17.0104C1.82982 16.684 1.66663 16.2917 1.66663 15.8333V6.66667C1.66663 6.20833 1.82982 5.81597 2.15621 5.48958C2.4826 5.1632 2.87496 5 3.33329 5H6.66663V3.33333C6.66663 2.875 6.82982 2.48264 7.15621 2.15625C7.4826 1.82986 7.87496 1.66667 8.33329 1.66667H11.6666C12.125 1.66667 12.5173 1.82986 12.8437 2.15625C13.1701 2.48264 13.3333 2.875 13.3333 3.33333V5H16.6666C17.125 5 17.5173 5.1632 17.8437 5.48958C18.1701 5.81597 18.3333 6.20833 18.3333 6.66667V15.8333C18.3333 16.2917 18.1701 16.684 17.8437 17.0104C17.5173 17.3368 17.125 17.5 16.6666 17.5H3.33329ZM8.33329 5H11.6666V3.33333H8.33329V5Z" fill="#275E9C"/>
</g>
</svg>
